<svg xmlns="http://www.w3.org/2000/svg" width="500" viewBox="0 0 375 375" height="500" version="1.0"><defs><clipPath id="a"><path d="M52.777 26.648h240.75v344.25H52.777Zm0 0"/></clipPath><clipPath id="b"><path d="M81.902 4.121h240v344.25h-240Zm0 0"/></clipPath><clipPath id="c"><path d="M98.105 15.574h216v321.75h-216Zm0 0"/></clipPath><clipPath id="d"><path d="M112.941 26.648h201v300h-201Zm0 0"/></clipPath><clipPath id="e"><path d="M154.898 163.21h114.75v114.75h-114.75Zm0 0"/></clipPath><clipPath id="f"><path d="M269.508 220.516a57.327 57.327 0 0 1-1.098 11.175 57.227 57.227 0 0 1-5.668 15.836 56.85 56.85 0 0 1-6.242 9.34 57.732 57.732 0 0 1-3.773 4.168 57.785 57.785 0 0 1-4.168 3.777 58.147 58.147 0 0 1-4.516 3.348 56.849 56.849 0 0 1-4.824 2.89 56.999 56.999 0 0 1-5.086 2.407 57.638 57.638 0 0 1-5.293 1.895 58.03 58.03 0 0 1-5.457 1.367 57.351 57.351 0 0 1-11.18 1.102 57.471 57.471 0 0 1-11.18-1.102 57.714 57.714 0 0 1-10.75-3.262 57.445 57.445 0 0 1-14.421-8.644 56.968 56.968 0 0 1-4.168-3.778 57.786 57.786 0 0 1-3.778-4.168 58.147 58.147 0 0 1-3.347-4.515 56.849 56.849 0 0 1-2.891-4.825 57.227 57.227 0 0 1-6.492-21.398 57.332 57.332 0 0 1-.278-5.613 57.351 57.351 0 0 1 16.786-40.524 57.872 57.872 0 0 1 4.168-3.777 58.147 58.147 0 0 1 4.515-3.348 57.445 57.445 0 0 1 9.906-5.297 57.714 57.714 0 0 1 10.75-3.261 58.209 58.209 0 0 1 5.563-.825 57.466 57.466 0 0 1 5.617-.273 57.347 57.347 0 0 1 11.18 1.098c1.844.367 3.66.824 5.457 1.367a57.639 57.639 0 0 1 5.293 1.894c1.734.72 3.43 1.52 5.086 2.407a56.85 56.85 0 0 1 4.824 2.89 58.147 58.147 0 0 1 4.516 3.348 58.715 58.715 0 0 1 4.168 3.777 57.731 57.731 0 0 1 7.125 8.684 56.85 56.85 0 0 1 2.89 4.824 57.227 57.227 0 0 1 6.766 27.016Zm0 0"/></clipPath><clipPath id="h"><path d="M174.844 183.152h74.719v74.72h-74.72Zm0 0"/></clipPath><clipPath id="i"><path d="M212.203 183.152c-20.633 0-37.36 16.727-37.36 37.36s16.727 37.36 37.36 37.36 37.36-16.727 37.36-37.36-16.727-37.36-37.36-37.36Zm0 0"/></clipPath><radialGradient gradientTransform="translate(154.9 163.21)" gradientUnits="userSpaceOnUse" r="59.782" cx="59.099" id="g" cy="53.114" fx="36.899" fy="42.637"><stop stop-color="#C86A12" offset="0"/><stop stop-color="#C86A12" offset=".25"/><stop stop-color="#C86A12" offset=".344"/><stop stop-color="#C76A12" offset=".352"/><stop stop-color="#C76912" offset=".355"/><stop stop-color="#C66912" offset=".359"/><stop stop-color="#C66912" offset=".363"/><stop stop-color="#C56811" offset=".367"/><stop stop-color="#C56811" offset=".371"/><stop stop-color="#C46711" offset=".375"/><stop stop-color="#C46711" offset=".379"/><stop stop-color="#C36711" offset=".383"/><stop stop-color="#C36611" offset=".387"/><stop stop-color="#C26611" offset=".391"/><stop stop-color="#C26611" offset=".395"/><stop stop-color="#C16510" offset=".398"/><stop stop-color="#C06510" offset=".402"/><stop stop-color="#C06410" offset=".406"/><stop stop-color="#BF6410" offset=".41"/><stop stop-color="#BF6410" offset=".414"/><stop stop-color="#BE6310" offset=".418"/><stop stop-color="#BE6310" offset=".422"/><stop stop-color="#BD6310" offset=".426"/><stop stop-color="#BD620F" offset=".43"/><stop stop-color="#BC620F" offset=".434"/><stop stop-color="#BC610F" offset=".438"/><stop stop-color="#BB610F" offset=".441"/><stop stop-color="#BA610F" offset=".445"/><stop stop-color="#BA600F" offset=".449"/><stop stop-color="#B9600F" offset=".453"/><stop stop-color="#B95F0E" offset=".457"/><stop stop-color="#B85F0E" offset=".461"/><stop stop-color="#B85F0E" offset=".465"/><stop stop-color="#B75E0E" offset=".469"/><stop stop-color="#B75E0E" offset=".473"/><stop stop-color="#B65E0E" offset=".477"/><stop stop-color="#B65D0E" offset=".48"/><stop stop-color="#B55D0E" offset=".484"/><stop stop-color="#B55C0D" offset=".488"/><stop stop-color="#B45C0D" offset=".492"/><stop stop-color="#B35C0D" offset=".496"/><stop stop-color="#B35B0D" offset=".5"/><stop stop-color="#B25B0D" offset=".504"/><stop stop-color="#B25B0D" offset=".508"/><stop stop-color="#B15A0D" offset=".512"/><stop stop-color="#B15A0D" offset=".516"/><stop stop-color="#B0590C" offset=".52"/><stop stop-color="#B0590C" offset=".523"/><stop stop-color="#AF590C" offset=".527"/><stop stop-color="#AF580C" offset=".531"/><stop stop-color="#AE580C" offset=".535"/><stop stop-color="#AE570C" offset=".539"/><stop stop-color="#AD570C" offset=".543"/><stop stop-color="#AC570B" offset=".547"/><stop stop-color="#AC560B" offset=".551"/><stop stop-color="#AB560B" offset=".555"/><stop stop-color="#AB560B" offset=".559"/><stop stop-color="#AA550B" offset=".563"/><stop stop-color="#AA550B" offset=".566"/><stop stop-color="#A9540B" offset=".57"/><stop stop-color="#A9540B" offset=".574"/><stop stop-color="#A8540A" offset=".578"/><stop stop-color="#A8530A" offset=".582"/><stop stop-color="#A7530A" offset=".586"/><stop stop-color="#A7530A" offset=".59"/><stop stop-color="#A6520A" offset=".594"/><stop stop-color="#A5520A" offset=".598"/><stop stop-color="#A5510A" offset=".602"/><stop stop-color="#A4510A" offset=".605"/><stop stop-color="#A45109" offset=".609"/><stop stop-color="#A35009" offset=".613"/><stop stop-color="#A35009" offset=".617"/><stop stop-color="#A24F09" offset=".621"/><stop stop-color="#A24F09" offset=".625"/><stop stop-color="#A14F09" offset=".629"/><stop stop-color="#A14E09" offset=".633"/><stop stop-color="#A04E08" offset=".637"/><stop stop-color="#A04E08" offset=".641"/><stop stop-color="#9F4D08" offset=".645"/><stop stop-color="#9E4D08" offset=".648"/><stop stop-color="#9E4C08" offset=".652"/><stop stop-color="#9D4C08" offset=".656"/><stop stop-color="#9D4C08" offset=".66"/><stop stop-color="#9C4B08" offset=".664"/><stop stop-color="#9C4B07" offset=".668"/><stop stop-color="#9B4B07" offset=".672"/><stop stop-color="#9B4A07" offset=".676"/><stop stop-color="#9A4A07" offset=".68"/><stop stop-color="#9A4907" offset=".684"/><stop stop-color="#994907" offset=".688"/><stop stop-color="#994907" offset=".691"/><stop stop-color="#984807" offset=".695"/><stop stop-color="#974806" offset=".699"/><stop stop-color="#974706" offset=".703"/><stop stop-color="#964706" offset=".707"/><stop stop-color="#964706" offset=".711"/><stop stop-color="#954606" offset=".715"/><stop stop-color="#954606" offset=".719"/><stop stop-color="#944606" offset=".723"/><stop stop-color="#944505" offset=".727"/><stop stop-color="#934505" offset=".73"/><stop stop-color="#924405" offset=".734"/><stop stop-color="#924405" offset="1"/></radialGradient></defs><g clip-path="url(#a)"><path fill="#3d573a" d="m273.727 179.824-.012-.027c-7.508-15.524-14.59-30.192-14.59-47.633 0-32.324-8.64-59.36-24.984-78.176-11.383-13.097-26.418-21.918-43.493-25.496l-6.484-1.094-.11-.02c-.14-.015-.277-.026-.413-.038l-.25-.024a76.164 76.164 0 0 0-3.953-.386l-.45-.035a33.663 33.663 0 0 0-.851-.063 87.398 87.398 0 0 0-5.14-.168c-1.556 0-3.2.055-5.142.168-.289.016-.578.04-.867.063l-.46.035a90.04 90.04 0 0 0-3.938.379l-.25.023c-.14.012-.278.023-.414.04l-6.508 1.089-.098.016c-17.078 3.593-32.11 12.414-43.48 25.503-16.344 18.82-24.98 45.856-24.98 78.18 0 17.426-7.09 32.098-14.594 47.637-9.137 18.894-19.489 40.312-19.489 70.848 0 66.285 53.926 120.214 120.215 120.214 66.29 0 120.215-53.921 120.215-120.207 0-30.511-10.352-51.93-19.48-70.828Zm0 0"/></g><g clip-path="url(#b)"><path fill="#3d863a" d="m302.754 157.305-.012-.028c-7.5-15.515-14.594-30.18-14.594-47.613 0-32.312-8.628-59.328-24.972-78.14-11.367-13.098-26.395-21.91-43.461-25.497l-6.485-1.093-.109-.016c-.137-.016-.277-.027-.414-.04l-.25-.023a84.248 84.248 0 0 0-3.95-.378c-.152-.012-.3-.028-.448-.04a87.417 87.417 0 0 0-5.992-.227c-1.567 0-3.2.052-5.137.169-.293.016-.582.039-.868.062l-.457.036c-1.445.113-2.73.234-3.933.378l-.254.024c-.137.016-.273.027-.41.039l-6.504 1.09-.098.02C167.34 9.612 152.31 18.425 140.95 31.515c-16.344 18.812-24.976 45.836-24.976 78.144 0 17.426-7.09 32.086-14.594 47.613-9.129 18.891-19.477 40.297-19.477 70.82 0 66.255 53.903 120.157 120.157 120.157 66.257 0 120.16-53.898 120.16-120.152 0-30.496-10.34-51.907-19.465-70.793Zm0 0"/></g><g clip-path="url(#c)"><path fill="#86cd60" d="M206.168 337.652c-59.57 0-108.035-48.464-108.035-108.035 0-27.812 9.367-47.195 18.433-65.953 8.059-16.668 16.387-33.906 16.387-55.094 0-29.414 7.574-53.68 21.902-70.18 9.434-10.859 21.903-18.199 36.067-21.23l5.867-.98c.172-.02.352-.035.527-.059a85.14 85.14 0 0 1 3.883-.363h.035c.172-.012.32-.028.477-.035h.055a69.767 69.767 0 0 1 4.41-.149c1.312 0 2.71.043 4.406.145h.05c.15 0 .302.02.458.031h.039l.562.047c1.137.082 2.27.183 3.348.32.172.024.344.04.531.059l5.875.988c14.153 3.043 26.602 10.375 36.032 21.234 14.324 16.504 21.906 40.77 21.906 70.184 0 21.2 8.332 38.43 16.387 55.09l.023.047c9.055 18.746 18.41 38.129 18.41 65.906 0 59.574-48.465 108.027-108.035 108.027Zm0 0"/></g><g clip-path="url(#d)"><path fill="#e5ff7f" d="M213.586 326.613c-55.48 0-100.617-45.136-100.617-100.617 0-25.902 8.722-43.957 17.168-61.426 7.504-15.523 15.261-31.578 15.261-51.308 0-27.395 7.055-49.996 20.399-65.364 8.785-10.113 20.398-16.949 33.59-19.773l5.465-.914c.16-.016.328-.031.492-.055.93-.11 1.957-.207 3.133-.3.16-.008.32-.024.48-.036h.035c.16-.011.297-.023.442-.035h.054a68.201 68.201 0 0 1 4.102-.137c1.226 0 2.531.043 4.105.133h.051c.137 0 .277.02.422.032h.039l.523.042a58.59 58.59 0 0 1 3.118.301c.16.02.32.035.492.051l5.476.926c13.18 2.828 24.774 9.66 33.555 19.773 13.34 15.371 20.402 37.969 20.402 65.364 0 19.746 7.762 35.793 15.262 51.308l.024.043c8.43 17.461 17.144 35.512 17.144 61.383.004 55.484-45.137 100.61-100.617 100.61Zm0 0"/></g><g clip-path="url(#e)"><g clip-path="url(#f)"><path fill="url(#g)" d="M154.898 163.21v114.61h114.61V163.21Zm0 0"/></g></g><g clip-path="url(#h)"><g clip-path="url(#i)"><path fill="none" d="M212.203 183.152c-20.633 0-37.36 16.727-37.36 37.36s16.727 37.36 37.36 37.36 37.36-16.727 37.36-37.36-16.727-37.36-37.36-37.36Zm0 0" stroke="#fff" stroke-width="24"/></g></g><path stroke-linecap="round" fill="none" d="M243.863 219.496v32.383" stroke="#fff" stroke-width="12"/></svg>