<svg xmlns="http://www.w3.org/2000/svg" width="345" viewBox="0 0 258.75 102.75" height="137" version="1.0"><defs><clipPath id="a"><path d="M1.18 27.02H37.03V62.87H1.18Zm0 0"/></clipPath><clipPath id="b"><path d="M19.105 27.02c-9.902 0-17.925 8.023-17.925 17.925 0 9.903 8.023 17.926 17.925 17.926 9.899 0 17.926-8.023 17.926-17.926 0-9.902-8.027-17.925-17.926-17.925Zm0 0"/></clipPath><clipPath id="c"><path d="M126.82 30.387h35.856v35.851H126.82Zm0 0"/></clipPath><clipPath id="d"><path d="M144.746 30.387c-9.898 0-17.926 8.027-17.926 17.925 0 9.903 8.028 17.926 17.926 17.926 9.902 0 17.93-8.023 17.93-17.925 0-9.899-8.028-17.926-17.93-17.926Zm0 0"/></clipPath></defs><g clip-path="url(#a)"><g clip-path="url(#b)"><path fill="none" d="M19.105 27.02c-9.902 0-17.925 8.023-17.925 17.925 0 9.903 8.023 17.926 17.925 17.926 9.899 0 17.926-8.023 17.926-17.926 0-9.902-8.027-17.925-17.926-17.925Zm0 0" stroke="#c86a12" stroke-width="17.95638976"/></g></g><path stroke-linecap="round" fill="none" d="M34.293 45.23v13.997" stroke="#c86a12" stroke-width="7.29984"/><path d="m45.73 41.099 5.062 11.312L55.87 41.1h8.515L53.23 61.896h-4.86L37.215 41.099ZM64.15 59.427c-2.305-2.062-3.453-4.695-3.453-7.906 0-3.219 1.203-5.86 3.61-7.922 2.405-2.07 5.378-3.11 8.921-3.11 3.477 0 6.414 1.044 8.813 3.126 2.394 2.074 3.593 4.71 3.593 7.906 0 3.187-1.172 5.82-3.515 7.89-2.336 2.063-5.297 3.094-8.89 3.094-3.743 0-6.767-1.023-9.079-3.078Zm5.562-11.437c-.93.918-1.39 2.093-1.39 3.53 0 1.43.441 2.595 1.328 3.5.894.907 2.07 1.36 3.531 1.36 1.406 0 2.563-.457 3.469-1.375.906-.914 1.36-2.078 1.36-3.484 0-1.438-.47-2.613-1.407-3.531-.93-.914-2.07-1.375-3.422-1.375-1.375 0-2.531.46-3.469 1.375Zm0 0" fill="#c86a12"/><path d="M96.25 46.365c-1.356 0-2.516.5-3.485 1.5-.969 1-1.453 2.203-1.453 3.609 0 1.437.484 2.656 1.453 3.656.969 1 2.13 1.5 3.485 1.5a7.12 7.12 0 0 0 1.843-.234c.582-.164 1.008-.332 1.282-.5l.359-.25 2.437 5a8.685 8.685 0 0 1-.796.5c-.336.2-1.106.476-2.313.828-1.2.352-2.484.531-3.86.531-3.062 0-5.75-1.07-8.062-3.219-2.304-2.156-3.453-4.734-3.453-7.734 0-3.02 1.149-5.617 3.453-7.797 2.313-2.176 5-3.265 8.063-3.265 1.375 0 2.64.164 3.797.484 1.164.324 1.992.648 2.484.969l.687.484-2.437 4.906c-.887-.644-2.047-.968-3.484-.968Zm0 0" fill="#c86a12"/><path d="M103.237 59.427c-2.304-2.062-3.453-4.695-3.453-7.906 0-3.219 1.203-5.86 3.61-7.922 2.406-2.07 5.378-3.11 8.921-3.11 3.477 0 6.414 1.044 8.813 3.126 2.394 2.074 3.594 4.71 3.594 7.906 0 3.187-1.172 5.82-3.516 7.89-2.336 2.063-5.297 3.094-8.89 3.094-3.743 0-6.766-1.023-9.079-3.078ZM108.8 47.99c-.93.918-1.39 2.093-1.39 3.53 0 1.43.44 2.595 1.327 3.5.895.907 2.07 1.36 3.532 1.36 1.406 0 2.562-.457 3.468-1.375.907-.914 1.36-2.078 1.36-3.484 0-1.438-.47-2.613-1.407-3.531-.93-.914-2.07-1.375-3.421-1.375-1.375 0-2.532.46-3.47 1.375Zm0 0" fill="#c86a12"/><path d="M185.247 52.49h-15.094c0 1.46.473 2.543 1.422 3.25.945.699 1.973 1.046 3.078 1.046 1.164 0 2.086-.156 2.766-.468.676-.313 1.445-.926 2.312-1.844l5.188 2.594c-2.168 3.625-5.766 5.437-10.797 5.437-3.137 0-5.824-1.07-8.062-3.219-2.243-2.156-3.36-4.742-3.36-7.765 0-3.031 1.117-5.625 3.36-7.781 2.238-2.164 4.925-3.25 8.062-3.25 3.3 0 5.984.953 8.047 2.859 2.07 1.906 3.11 4.633 3.11 8.172 0 .48-.012.805-.032.969Zm-14.89-3.97h7.906c-.157-1.081-.586-1.913-1.282-2.5-.687-.581-1.574-.874-2.656-.874-1.187 0-2.137.312-2.844.937-.699.625-1.074 1.438-1.125 2.438Zm0 0" fill="#afdc34"/><path d="M193.87 40.49c1.195 0 2.375.136 3.531.406 1.164.273 2.031.543 2.594.812l.86.407-2.36 4.703c-1.617-.864-3.156-1.297-4.625-1.297-.805 0-1.375.09-1.719.265-.336.168-.5.497-.5.985 0 .105.008.215.031.328a.87.87 0 0 0 .157.297l.218.25c.07.062.192.137.36.219a8.875 8.875 0 0 0 .844.375c.218.074.378.132.484.171.113.043.297.106.547.188.258.086.457.137.594.156.843.25 1.57.528 2.187.828.625.293 1.281.696 1.969 1.203a5.152 5.152 0 0 1 1.594 1.954c.382.78.578 1.671.578 2.671 0 4.731-3.29 7.094-9.86 7.094-1.48 0-2.89-.23-4.234-.687-1.336-.457-2.297-.914-2.89-1.375l-.891-.735 2.922-4.906c.207.188.488.414.843.672.352.25.989.602 1.907 1.047.914.45 1.71.672 2.39.672 1.488 0 2.235-.5 2.235-1.5 0-.457-.196-.813-.579-1.063-.375-.258-1.015-.55-1.921-.875-.907-.332-1.618-.633-2.125-.906-1.305-.676-2.336-1.438-3.094-2.281-.75-.852-1.125-1.985-1.125-3.39 0-2.102.816-3.743 2.453-4.923 1.633-1.176 3.844-1.765 6.625-1.765Zm0 0" fill="#afdc34"/><path d="M201.648 29.505c.844-.844 1.844-1.265 3-1.265 1.164 0 2.164.421 3 1.265.844.836 1.266 1.836 1.266 3 0 1.156-.422 2.156-1.266 3-.836.836-1.836 1.25-3 1.25-1.156 0-2.156-.414-3-1.25-.836-.844-1.25-1.844-1.25-3 0-1.164.414-2.164 1.25-3Zm-.672 11.594v20.797h7.172V41.099Zm0 0" fill="#afdc34"/><path d="m208.472 67.005 5.875-2.875c1.082 1.781 2.961 2.672 5.64 2.672 1.24 0 2.391-.402 3.454-1.203 1.07-.793 1.61-2.012 1.61-3.656v-1.547c-1.274 1.406-3.544 2.11-6.813 2.11-3 0-5.477-1.055-7.422-3.173-1.938-2.125-2.906-4.726-2.906-7.812 0-3.082.968-5.692 2.906-7.828 1.945-2.133 4.422-3.203 7.422-3.203 2.676 0 4.91.824 6.703 2.468h.11V41.1h7.187v21.36c0 3.382-1.125 5.992-3.375 7.827-2.242 1.844-5.2 2.766-8.875 2.766-5.95 0-9.79-2.016-11.516-6.047Zm8.453-19.015c-.93.918-1.39 2.093-1.39 3.53 0 1.43.441 2.595 1.328 3.5.894.907 2.07 1.36 3.531 1.36 1.406 0 2.563-.457 3.469-1.375.906-.914 1.36-2.078 1.36-3.484 0-1.438-.47-2.613-1.407-3.531-.93-.914-2.07-1.375-3.422-1.375-1.375 0-2.531.46-3.469 1.375ZM233.292 61.896V41.099h7.172v2.187h.078c1.863-1.863 3.852-2.796 5.969-2.796 1.02 0 2.035.136 3.047.406 1.02.273 1.992.695 2.922 1.265.937.563 1.695 1.368 2.28 2.407.583 1.043.876 2.25.876 3.625v13.703h-7.188V50.13c0-1.07-.344-2.015-1.031-2.828-.688-.812-1.59-1.219-2.703-1.219-1.074 0-2.055.422-2.938 1.266-.875.836-1.312 1.762-1.312 2.781v11.766Zm0 0" fill="#afdc34"/><g clip-path="url(#c)"><g clip-path="url(#d)"><path fill="none" d="M144.746 30.387c-9.898 0-17.926 8.027-17.926 17.926 0 9.902 8.028 17.925 17.926 17.925 9.902 0 17.93-8.023 17.93-17.925 0-9.899-8.028-17.926-17.93-17.926Zm0 0" stroke="#afdc34" stroke-width="17.95638976"/></g></g><path stroke-linecap="round" fill="none" d="M159.023 30.672v13.996" stroke="#afdc34" stroke-width="7.29984"/></svg>